<svg width="32" height="32" viewBox="0 0 32 32" fill="none" xmlns="http://www.w3.org/2000/svg">
<circle cx="16" cy="16" r="16" fill="url(#paint0_linear_21606_107)"/>
<path d="M16.0032 6.86742C17.9933 9.39385 19.0557 12.5094 19.0171 15.7062V16.4694L19.6737 16.8689C20.5221 17.3825 21.1548 18.179 21.4565 19.1134C21.1916 18.9183 20.9144 18.7399 20.6267 18.5792L18.8758 17.5961L18.5612 19.5802C18.5339 19.7556 18.4974 19.9294 18.4517 20.101H13.5456C13.4726 19.8765 13.4134 19.6521 13.3586 19.4186L12.962 17.623L11.3478 18.5208C11.0782 18.6716 10.8178 18.838 10.5682 19.0191C10.8758 18.0955 11.4953 17.3035 12.3236 16.7746L12.9483 16.3751V15.6658C12.9595 12.4819 14.0347 9.39012 16.0078 6.86742H16.0032ZM16.0078 5C15.9055 5.00025 15.8067 5.03692 15.7296 5.10325L15.6886 5.13916C13.0593 8.03423 11.5993 11.7778 11.5849 15.6614C10.4692 16.374 9.64332 17.45 9.2516 18.7013C8.85988 19.9527 8.92725 21.2997 9.44193 22.5071C9.98411 21.3282 10.8905 20.3479 12.0318 19.7059C12.1463 20.1941 12.2987 20.6728 12.4878 21.1379C12.5117 21.2273 12.5649 21.3065 12.639 21.3633C12.7132 21.4201 12.8042 21.4513 12.8981 21.4522H19.2269C19.3545 21.4522 19.4822 21.331 19.546 21.1424C19.7306 20.7002 19.8592 20.2374 19.9291 19.7643C21.0726 20.4036 21.9797 21.3847 22.5189 22.5654C23.0647 21.364 23.1491 20.0085 22.7567 18.7504C22.3643 17.4922 21.5216 16.417 20.385 15.7242C20.4301 11.8178 18.9778 8.03815 16.3178 5.13916C16.2782 5.09556 16.2297 5.06064 16.1755 5.03667C16.1213 5.01269 16.0626 5.0002 16.0032 5H16.0078Z" fill="#4EA8DE"/>
<path d="M16.0032 15.2888C15.653 15.2888 15.3106 15.1867 15.0192 14.9954C14.7279 14.8042 14.5005 14.5322 14.3659 14.2139C14.2313 13.8956 14.1953 13.5452 14.2627 13.2069C14.33 12.8685 14.4976 12.5573 14.7443 12.3126C14.991 12.0679 15.3057 11.9005 15.6489 11.8316C15.992 11.7627 16.3482 11.7954 16.6726 11.9255C16.9969 12.0556 17.2748 12.2773 17.4714 12.5627C17.6679 12.8481 17.7742 13.1844 17.7769 13.5291V13.5291C17.7824 13.7526 17.7431 13.9749 17.6612 14.1834C17.5794 14.3918 17.4566 14.5824 17.2999 14.7441C17.1433 14.9059 16.9558 15.0356 16.7481 15.126C16.5405 15.2164 16.3168 15.2656 16.0899 15.2709C16.0612 15.2754 16.0319 15.2754 16.0032 15.2709V15.2888Z" fill="#4EA8DE"/>
<path d="M18.47 22.5698C18.3559 22.5662 18.2422 22.5851 18.1356 22.6254C18.0291 22.6656 17.9317 22.7264 17.8493 22.8041C17.7669 22.8819 17.7011 22.9751 17.6558 23.0783C17.6105 23.1814 17.5866 23.2924 17.5854 23.4048V26.0533C17.5854 26.2843 17.6786 26.5058 17.8445 26.6691C18.0104 26.8324 18.2354 26.9242 18.47 26.9242C18.7046 26.9242 18.9296 26.8324 19.0955 26.6691C19.2613 26.5058 19.3545 26.2843 19.3545 26.0533V23.4407C19.3582 23.3287 19.3392 23.2172 19.2986 23.1126C19.258 23.0079 19.1966 22.9123 19.1181 22.8312C19.0396 22.7502 18.9455 22.6853 18.8413 22.6404C18.737 22.5956 18.6248 22.5716 18.511 22.5698H18.47Z" fill="#5E60CE"/>
<path d="M13.5456 22.5699C13.4296 22.5639 13.3135 22.5809 13.2043 22.6199C13.0951 22.6589 12.9949 22.7192 12.9098 22.7971C12.8248 22.875 12.7565 22.9689 12.709 23.0733C12.6616 23.1778 12.6359 23.2905 12.6337 23.4049V26.0534C12.6337 26.2843 12.7269 26.5059 12.8927 26.6692C13.0586 26.8325 13.2836 26.9242 13.5182 26.9242C13.7528 26.9242 13.9778 26.8325 14.1437 26.6692C14.3096 26.5059 14.4028 26.2843 14.4028 26.0534V23.4408C14.4064 23.3288 14.3874 23.2173 14.3468 23.1127C14.3062 23.008 14.2449 22.9124 14.1664 22.8313C14.0879 22.7503 13.9938 22.6854 13.8895 22.6405C13.7853 22.5957 13.673 22.5716 13.5593 22.5699H13.5456Z" fill="#5E60CE"/>
<path d="M15.9394 22.57C15.8256 22.5676 15.7125 22.5873 15.6064 22.628C15.5004 22.6686 15.4035 22.7295 15.3214 22.807C15.2393 22.8846 15.1734 22.9773 15.1277 23.0799C15.082 23.1824 15.0572 23.2929 15.0548 23.4049V27.0545C15.0548 27.2854 15.148 27.5069 15.3139 27.6703C15.4798 27.8336 15.7048 27.9253 15.9394 27.9253C16.174 27.9253 16.399 27.8336 16.5649 27.6703C16.7308 27.5069 16.824 27.2854 16.824 27.0545V23.4633C16.8276 23.3513 16.8086 23.2398 16.768 23.1351C16.7274 23.0305 16.6661 22.9349 16.5875 22.8538C16.509 22.7728 16.4149 22.7079 16.3107 22.663C16.2064 22.6181 16.0942 22.5941 15.9804 22.5924L15.9394 22.57Z" fill="#5E60CE"/>
<defs>
<linearGradient id="paint0_linear_21606_107" x1="28" y1="4.5" x2="4.5" y2="27.5" gradientUnits="userSpaceOnUse">
<stop stop-color="#262626"/>
<stop offset="1" stop-color="#1E1E1E"/>
</linearGradient>
</defs>
</svg>
